<svg xmlns="http://www.w3.org/2000/svg" viewBox="0 0 2593.71 1630.88">
  <defs>
    <style>
      .cls-1 {
        opacity: 0.1;
      }

      .cls-2 {
        isolation: isolate;
      }

      .cls-3 {
        fill: #fff;
      }

      .cls-4 {
        fill: #e6e6e5;
      }

      .cls-5 {
        fill: #f0f0f0;
      }
    </style>
  </defs>
  <g id="Layer_2" data-name="Layer 2">
    <g id="Objects">
      <g>
        <g class="cls-1">
          <path d="M1062,387.7,385.18,692.58,264.7,623c93.53-68.08,194.51-144.32,308-222.67l-4-2.33C434.78,462.33,301.72,518.63,180.42,574.36L58.92,504.21,591,115.75,713.4,186.43C614.54,253.76,423.34,379,331.51,435.79l4,2.33c129.77-61.23,307.69-147.87,445.06-212.88l100,57.76c-104.89,75.37-252.41,177.11-366,256.28l4.69,2.7C636.7,480,840,374.62,947.26,321.45Z"/>
          <polygon points="1355.45 557.12 1253.33 616.47 1122.13 540.72 990.54 617.2 1115.13 689.13 1013.6 748.14 889 676.2 725.31 771.33 871.39 855.66 755.9 906.61 507.37 763.13 1107.85 414.17 1355.45 557.12"/>
          <path d="M1369.43,888c16.49,22.74,35.24,59.37-48.47,108l-47.78,27.77c-104.9,61-200.75,65.63-311.19,1.86l-150.6-86.95,600.48-349,142.87,82.49c102.68,59.29,108.14,113.61,15.33,167.55l-23.88,13.87C1464.82,900.89,1408.78,898.14,1369.43,888Zm-217,69.54,55.08-32c46.59-27.07,55.36-45,7.68-72.54l-15.79-9.12-185.1,107.57,23.24,13.42c41.52,24,70.39,18.54,114.89-7.32Zm281.22-249.8-145.35,84.47,18.37,10.61c39.22,22.64,65.19,23.17,111.14-3.53l31-18c38.5-22.37,43.46-39.66,6.62-60.93l-21.8-12.59Z"/>
          <path d="M2010.29,945.24c97.82,56.48,82.59,111.26-2.19,160.52l-22.1,12.85c-67.53,39.25-125.07,42.41-172.9,30.73,22.86,30.87,26.67,68.16-45.43,110.05l-46.5,27c-98.29,57.12-198.47,71.54-311.37,6.36-109.7-63.34-81.08-119.32,1.81-167.49l22.33-13,106.35,61.4-24.9,14.47c-27.89,16.21-45.27,34.31-15.45,51.53,29.23,16.88,62,5.79,92.29-11.79l60.7-35.28c47.27-27.47,51.63-46.31,6.17-72.56l-31.71-18.3,94-54.61,33.35,19.26c37.16,21.45,64,21.31,108.68-4.63l34.71-20.17c28-16.28,45.8-31.48,19.48-46.67s-52.84-6.71-80,9.08l-31.79,18.47-103-59.47,25.76-15C1798.45,907.45,1895.93,879.21,2010.29,945.24Z"/>
          <polygon points="1878.35 1386.24 1732.97 1470.72 1617.2 1403.89 1762.58 1319.4 1878.35 1386.24"/>
          <path d="M2524.24,1242c98,56.58,90.12,119.84-9.77,177.89l-276.61,160.75c-90.86,52.8-197.34,76.72-317.07,7.59-116.08-67-69.61-128.56,18.09-179.53l272.22-158.19C2316.4,1189.28,2426.67,1185.63,2524.24,1242Zm-413.31,279.35,299.63-174.12c29.14-16.94,41.91-33.7,15.29-49.06-25.11-14.5-54.65-9.08-87,9.7L2039.25,1482c-33.89,19.7-43.67,36.44-18,51.28s55.44,8,89.66-11.93Z"/>
        </g>
        <g class="cls-2">
          <polygon class="cls-3" points="513.97 284.6 513.74 366.3 509.69 363.96 509.92 282.26 513.97 284.6"/>
          <path class="cls-4" d="M654.71,70.68l-.23,81.7C555.62,219.7,364.42,345,272.59,401.73l.23-81.69C364.65,263.29,555.85,138,654.71,70.68Z"/>
          <path class="cls-4" d="M822,167.25l-.23,81.7c-104.89,75.36-252.42,177.11-366,256.27l.24-81.7C569.56,344.36,717.09,242.62,822,167.25Z"/>
          <path class="cls-4" d="M509.92,282.26l-.23,81.7C375.86,428.27,242.8,484.58,121.5,540.3l.23-81.69C243,402.88,376.09,346.58,509.92,282.26Z"/>
          <polygon class="cls-5" points="121.73 458.61 121.5 540.3 0 470.15 0.23 388.46 121.73 458.61"/>
          <polygon class="cls-5" points="326.49 576.83 326.26 658.52 205.78 588.97 206.02 507.27 326.49 576.83"/>
          <polygon class="cls-4" points="1003.32 271.95 1003.09 353.64 326.26 658.52 326.49 576.83 1003.32 271.95"/>
          <path class="cls-3" d="M1003.32,272,326.49,576.83,206,507.27C299.54,439.19,400.52,363,514,284.6l-4.05-2.34C376.09,346.58,243,402.88,121.73,458.61L.23,388.46,532.29,0,654.71,70.68C555.85,138,364.65,263.29,272.82,320l4.05,2.33c129.77-61.24,307.68-147.88,445.06-212.88L822,167.25C717.09,242.62,569.56,344.36,456,423.52l4.68,2.71c117.34-62,320.64-167.36,427.9-220.53Z"/>
        </g>
        <g class="cls-2">
          <polygon class="cls-4" points="1296.77 441.37 1296.54 523.07 1194.41 582.41 1194.65 500.72 1296.77 441.37"/>
          <polygon class="cls-5" points="1194.65 500.72 1194.41 582.41 1063.21 506.67 1063.44 424.97 1194.65 500.72"/>
          <polygon class="cls-4" points="1063.44 424.97 1063.21 506.67 931.62 583.14 931.85 501.44 1063.44 424.97"/>
          <polygon class="cls-5" points="954.91 632.39 954.68 714.08 830.08 642.15 830.31 560.45 954.91 632.39"/>
          <polygon class="cls-4" points="1056.45 573.38 1056.22 655.08 954.68 714.08 954.91 632.39 1056.45 573.38"/>
          <polygon class="cls-4" points="830.31 560.45 830.08 642.15 666.4 737.27 666.63 655.57 830.31 560.45"/>
          <polygon class="cls-3" points="1296.77 441.37 1194.65 500.72 1063.44 424.97 931.85 501.44 1056.45 573.38 954.91 632.39 830.31 560.45 666.63 655.57 812.7 739.91 697.21 790.86 448.69 647.37 1049.16 298.41 1296.77 441.37"/>
          <polygon class="cls-4" points="812.7 739.91 812.47 821.6 696.98 872.56 697.21 790.86 812.7 739.91"/>
          <polygon class="cls-5" points="697.21 790.86 696.98 872.56 448.45 729.07 448.69 647.37 697.21 790.86"/>
        </g>
        <g class="cls-2">
          <polygon class="cls-5" points="1396.75 604.53 1396.52 686.23 1374.71 673.63 1374.94 591.94 1396.75 604.53"/>
          <path class="cls-5" d="M1421.85,632.38l-.23,81.69c0-9-8.07-18-25.1-27.84l.23-81.7C1413.78,614.36,1421.88,623.35,1421.85,632.38Z"/>
          <polygon class="cls-4" points="1374.94 591.94 1374.71 673.63 1229.36 758.1 1229.59 676.41 1374.94 591.94"/>
          <path class="cls-5" d="M1577.24,646.76l-.23,81.69c-.08,26.15-22,51.73-65.86,77.22l.23-81.7C1555.25,698.48,1577.16,672.9,1577.24,646.76Z"/>
          <polygon class="cls-5" points="1511.38 723.97 1511.15 805.67 1487.27 819.55 1487.51 737.85 1511.38 723.97"/>
          <polygon class="cls-5" points="1156.48 737.19 1156.25 818.88 1140.46 809.77 1140.69 728.07 1156.48 737.19"/>
          <path class="cls-5" d="M1188.26,770.74l-.23,81.69c0-10.37-10-20.95-31.78-33.55l.23-81.69C1178.29,749.78,1188.29,760.36,1188.26,770.74Z"/>
          <path class="cls-5" d="M1487.51,737.85l-.24,81.7c-81.37,47.29-137.41,44.54-176.75,34.34l.23-81.7C1350.09,782.39,1406.13,785.14,1487.51,737.85Z"/>
          <polygon class="cls-4" points="1140.69 728.07 1140.46 809.77 955.36 917.33 955.6 835.63 1140.69 728.07"/>
          <path class="cls-5" d="M1325,808.07l-.23,81.7c-.06,19.77-14.15,43.93-62.69,72.14l.23-81.69C1310.81,852,1324.9,827.84,1325,808.07Z"/>
          <polygon class="cls-5" points="1262.27 880.22 1262.04 961.91 1214.26 989.68 1214.49 907.99 1262.27 880.22"/>
          <polygon class="cls-5" points="903.31 909.85 903.07 991.54 752.47 904.6 752.7 822.9 903.31 909.85"/>
          <path class="cls-3" d="M1310.75,772.19c16.48,22.75,35.23,59.38-48.48,108L1214.49,908c-104.89,61-200.74,65.63-311.18,1.87l-150.61-87,600.48-349,142.87,82.49C1598.74,615.71,1604.2,670,1511.38,724l-23.87,13.88C1406.13,785.14,1350.09,782.39,1310.75,772.19Zm-217,69.55,55.07-32c46.59-27.07,55.37-45,7.68-72.54l-15.79-9.12L955.6,835.64l23.24,13.41c41.51,24,70.39,18.55,114.89-7.31Zm281.21-249.8-145.35,84.47L1248,687c39.21,22.64,65.18,23.17,111.13-3.54l31-18c38.5-22.38,43.45-39.67,6.62-60.93l-21.81-12.59Z"/>
          <path class="cls-5" d="M1214.49,908l-.23,81.7c-104.89,61-200.74,65.63-311.19,1.86l.24-81.69C1013.75,973.61,1109.6,968.94,1214.49,908Z"/>
        </g>
        <g class="cls-2">
          <path class="cls-4" d="M1871.77,895l-.23,81.7c0-5.28-3.82-10.51-12.88-15.74-26.34-15.21-52.85-6.71-80,9.07l.23-81.7c27.16-15.78,53.67-24.28,80-9.07C1868,884.44,1871.78,889.68,1871.77,895Z"/>
          <polygon class="cls-5" points="1747.1 906.76 1746.87 988.45 1643.87 928.99 1644.1 847.29 1747.1 906.76"/>
          <polygon class="cls-4" points="1778.88 888.28 1778.65 969.98 1746.87 988.45 1747.1 906.76 1778.88 888.28"/>
          <path class="cls-5" d="M2019.14,908.75l-.23,81.7c-.08,28.23-25.4,55.5-69.73,81.26l.24-81.7C1993.75,964.25,2019.06,937,2019.14,908.75Z"/>
          <polygon class="cls-5" points="1949.42 990.01 1949.18 1071.71 1927.09 1084.55 1927.32 1002.85 1949.42 990.01"/>
          <polygon class="cls-5" points="1600.42 1004.33 1600.18 1086.03 1568.47 1067.72 1568.7 986.02 1600.42 1004.33"/>
          <path class="cls-5" d="M1632.22,1038.26,1632,1120c0-10.78-10.32-21.52-31.8-33.92l.24-81.7C1621.89,1016.73,1632.25,1027.47,1632.22,1038.26Z"/>
          <path class="cls-5" d="M1927.32,1002.85l-.23,81.7c-67.54,39.25-125.08,42.41-172.9,30.74l.23-81.7C1802.24,1045.27,1859.78,1042.1,1927.32,1002.85Z"/>
          <polygon class="cls-4" points="1481.6 1057.96 1481.37 1139.66 1456.48 1154.12 1456.71 1072.43 1481.6 1057.96"/>
          <path class="cls-4" d="M1425.45,1186.35l.23-81.7c0-11,13.44-22,31-32.22l-.23,81.69C1438.89,1164.35,1425.48,1175.32,1425.45,1186.35Z"/>
          <path class="cls-5" d="M1769.1,1071.82l-.23,81.69c-.06,21.91-15.66,46-60.11,71.83l.23-81.7C1753.45,1117.8,1769,1093.72,1769.1,1071.82Z"/>
          <polygon class="cls-5" points="1708.99 1143.64 1708.76 1225.34 1662.25 1252.36 1662.48 1170.67 1708.99 1143.64"/>
          <path class="cls-3" d="M1951.6,829.48c97.82,56.48,82.6,111.26-2.18,160.53l-22.1,12.84c-67.54,39.25-125.08,42.42-172.9,30.74,22.85,30.87,26.66,68.15-45.43,110.05l-46.51,27c-98.28,57.11-198.46,71.54-311.36,6.35-109.7-63.33-81.09-119.31,1.81-167.48l22.33-13L1481.6,1058l-24.89,14.47c-27.9,16.21-45.27,34.31-15.45,51.53,29.23,16.87,62,5.79,92.28-11.8l60.7-35.27c47.28-27.47,51.63-46.31,6.18-72.56L1568.7,986l94-54.6L1696,950.67c37.17,21.46,64.06,21.31,108.68-4.62l34.72-20.17c28-16.29,45.79-31.48,19.48-46.67s-52.85-6.71-80,9.07l-31.78,18.48-103-59.47,25.76-15C1739.77,791.7,1837.24,763.46,1951.6,829.48Z"/>
          <path class="cls-5" d="M1279.12,1175.7l.23-81.7c-.07,26.08,21.09,53.76,71.77,83,112.9,65.19,213.08,50.76,311.36-6.35l-.23,81.69c-98.28,57.12-198.47,71.54-311.37,6.36C1300.21,1229.46,1279.05,1201.77,1279.12,1175.7Z"/>
        </g>
        <g class="cls-2">
          <polygon class="cls-4" points="1819.66 1270.49 1819.43 1352.18 1674.05 1436.67 1674.28 1354.97 1819.66 1270.49"/>
          <polygon class="cls-5" points="1674.28 1354.97 1674.05 1436.67 1558.28 1369.83 1558.52 1288.13 1674.28 1354.97"/>
          <polygon class="cls-3" points="1819.66 1270.49 1674.28 1354.97 1558.52 1288.13 1703.89 1203.65 1819.66 1270.49"/>
        </g>
        <g class="cls-2">
          <path class="cls-4" d="M2381.71,1200.48l-.23,81.7c0-6.19-4.41-12.25-14.55-18.1-25.11-14.5-54.65-9.07-87,9.71l.23-81.7c32.32-18.78,61.86-24.2,87-9.71C2377.3,1188.24,2381.73,1194.29,2381.71,1200.48Z"/>
          <path class="cls-5" d="M2535,1210.74l-.23,81.7c-.09,31.41-27.16,63.1-79.24,93.36l.24-81.7C2507.87,1273.84,2534.93,1242.16,2535,1210.74Z"/>
          <polygon class="cls-4" points="2280.19 1192.09 2279.96 1273.79 1980.34 1447.91 1980.57 1366.22 2280.19 1192.09"/>
          <path class="cls-4" d="M1947.8,1481.06l.24-81.7c0-10.1,11.74-21.06,32.53-33.14l-.24,81.69C1959.55,1460,1947.83,1471,1947.8,1481.06Z"/>
          <polygon class="cls-5" points="2455.79 1304.11 2455.55 1385.8 2178.94 1546.55 2179.17 1464.86 2455.79 1304.11"/>
          <path class="cls-5" d="M1792.64,1472.06l.23-81.7c-.07,26.12,19.9,53.61,69.23,82.09,119.73,69.13,226.21,45.21,317.07-7.59l-.23,81.69c-90.86,52.8-197.34,76.73-317.07,7.6C1812.54,1525.67,1792.57,1498.17,1792.64,1472.06Z"/>
          <path class="cls-3" d="M2465.55,1126.21c98,56.59,90.12,119.85-9.76,177.89l-276.62,160.76c-90.86,52.8-197.34,76.72-317.07,7.59-116.07-67-69.61-128.56,18.1-179.53l272.21-158.19C2257.71,1073.53,2368,1069.88,2465.55,1126.21Zm-413.3,279.36,299.62-174.13c29.15-16.93,41.91-33.69,15.29-49.06-25.11-14.49-54.65-9.07-87,9.71l-299.62,174.13c-33.9,19.69-43.68,36.44-18,51.27s55.43,8,89.66-11.92Z"/>
        </g>
      </g>
    </g>
  </g>
</svg>
