<svg xmlns="http://www.w3.org/2000/svg" xmlns:xlink="http://www.w3.org/1999/xlink" viewBox="0 0 582.66 383.21">
  <defs>
    <style>
      .cls-1 {
        isolation: isolate;
      }

      .cls-2, .cls-37, .cls-38, .cls-48 {
        mix-blend-mode: screen;
      }

      .cls-2 {
        opacity: 0.67;
      }

      .cls-3 {
        fill: url(#linear-gradient);
      }

      .cls-4 {
        fill: url(#linear-gradient-2);
      }

      .cls-5 {
        fill: url(#linear-gradient-3);
      }

      .cls-6 {
        fill: url(#linear-gradient-4);
      }

      .cls-7 {
        fill: url(#linear-gradient-5);
      }

      .cls-8 {
        fill: url(#linear-gradient-6);
      }

      .cls-9 {
        fill: url(#linear-gradient-7);
      }

      .cls-10 {
        fill: url(#linear-gradient-8);
      }

      .cls-11 {
        fill: url(#linear-gradient-9);
      }

      .cls-12 {
        fill: url(#linear-gradient-10);
      }

      .cls-13 {
        fill: url(#linear-gradient-11);
      }

      .cls-14 {
        fill: url(#linear-gradient-12);
      }

      .cls-15 {
        fill: url(#linear-gradient-13);
      }

      .cls-16 {
        fill: url(#linear-gradient-14);
      }

      .cls-17 {
        fill: url(#linear-gradient-15);
      }

      .cls-18 {
        fill: url(#linear-gradient-16);
      }

      .cls-19 {
        fill: url(#linear-gradient-17);
      }

      .cls-20 {
        fill: url(#linear-gradient-18);
      }

      .cls-21 {
        fill: #edf7ff;
      }

      .cls-106, .cls-22, .cls-25, .cls-55 {
        opacity: 0.5;
      }

      .cls-22 {
        fill: url(#linear-gradient-19);
      }

      .cls-107, .cls-23, .cls-37, .cls-61, .cls-89 {
        opacity: 0.3;
      }

      .cls-23 {
        fill: url(#linear-gradient-20);
      }

      .cls-24 {
        fill: url(#linear-gradient-21);
      }

      .cls-25 {
        fill: url(#linear-gradient-22);
      }

      .cls-26 {
        fill: url(#linear-gradient-23);
      }

      .cls-27 {
        fill: url(#linear-gradient-24);
      }

      .cls-28 {
        fill: url(#linear-gradient-25);
      }

      .cls-29 {
        fill: url(#linear-gradient-26);
      }

      .cls-30 {
        fill: url(#linear-gradient-27);
      }

      .cls-31 {
        fill: url(#linear-gradient-28);
      }

      .cls-32 {
        fill: url(#linear-gradient-29);
      }

      .cls-33 {
        fill: url(#linear-gradient-30);
      }

      .cls-34 {
        fill: url(#linear-gradient-31);
      }

      .cls-35 {
        fill: url(#linear-gradient-32);
      }

      .cls-36 {
        fill: url(#linear-gradient-33);
      }

      .cls-37, .cls-38 {
        fill: url(#linear-gradient-34);
      }

      .cls-38 {
        opacity: 0.15;
      }

      .cls-39 {
        fill: url(#linear-gradient-36);
      }

      .cls-40 {
        fill: url(#linear-gradient-37);
      }

      .cls-41 {
        fill: url(#linear-gradient-38);
      }

      .cls-42, .cls-66 {
        mix-blend-mode: color-burn;
      }

      .cls-42 {
        fill: url(#linear-gradient-39);
      }

      .cls-103, .cls-105, .cls-117, .cls-127, .cls-43, .cls-44, .cls-45, .cls-88 {
        fill: none;
      }

      .cls-117, .cls-127, .cls-43, .cls-44, .cls-45, .cls-88 {
        stroke-miterlimit: 10;
      }

      .cls-43, .cls-44, .cls-45 {
        stroke-width: 1.07px;
      }

      .cls-43 {
        stroke: url(#linear-gradient-40);
      }

      .cls-44 {
        stroke: url(#linear-gradient-41);
      }

      .cls-45 {
        stroke: url(#linear-gradient-42);
      }

      .cls-46 {
        fill: url(#linear-gradient-43);
      }

      .cls-47 {
        fill: url(#linear-gradient-44);
      }

      .cls-49 {
        fill: url(#linear-gradient-45);
      }

      .cls-50 {
        fill: #fff;
      }

      .cls-51 {
        fill: url(#linear-gradient-46);
      }

      .cls-52 {
        fill: url(#linear-gradient-47);
      }

      .cls-53 {
        fill: url(#linear-gradient-48);
      }

      .cls-54 {
        fill: url(#linear-gradient-49);
      }

      .cls-55 {
        fill: url(#linear-gradient-50);
      }

      .cls-56 {
        fill: url(#linear-gradient-51);
      }

      .cls-57 {
        fill: url(#linear-gradient-52);
      }

      .cls-58 {
        fill: url(#linear-gradient-53);
      }

      .cls-59 {
        fill: url(#linear-gradient-54);
      }

      .cls-60, .cls-91 {
        opacity: 0.2;
      }

      .cls-60 {
        fill: url(#linear-gradient-55);
      }

      .cls-61 {
        fill: url(#linear-gradient-56);
      }

      .cls-62 {
        fill: #efcdaf;
      }

      .cls-63 {
        fill: url(#linear-gradient-57);
      }

      .cls-64 {
        fill: url(#linear-gradient-58);
      }

      .cls-65 {
        fill: url(#linear-gradient-59);
      }

      .cls-66 {
        opacity: 0.35;
        fill: url(#linear-gradient-60);
      }

      .cls-67 {
        fill: url(#linear-gradient-61);
      }

      .cls-68 {
        fill: url(#linear-gradient-62);
      }

      .cls-69 {
        fill: url(#linear-gradient-63);
      }

      .cls-70 {
        fill: url(#linear-gradient-64);
      }

      .cls-71 {
        fill: url(#linear-gradient-65);
      }

      .cls-72 {
        fill: #f0f9ff;
      }

      .cls-73 {
        fill: url(#linear-gradient-66);
      }

      .cls-74 {
        fill: url(#linear-gradient-67);
      }

      .cls-75 {
        fill: url(#linear-gradient-68);
      }

      .cls-76 {
        fill: url(#linear-gradient-69);
      }

      .cls-77 {
        fill: url(#linear-gradient-70);
      }

      .cls-78 {
        fill: url(#linear-gradient-71);
      }

      .cls-79 {
        fill: #e8a77d;
      }

      .cls-80 {
        fill: url(#linear-gradient-72);
      }

      .cls-81 {
        fill: url(#linear-gradient-73);
      }

      .cls-82 {
        fill: url(#linear-gradient-74);
      }

      .cls-83 {
        fill: #22256f;
      }

      .cls-84 {
        fill: url(#linear-gradient-75);
      }

      .cls-85 {
        fill: url(#linear-gradient-76);
      }

      .cls-86 {
        fill: url(#linear-gradient-77);
      }

      .cls-87 {
        fill: url(#linear-gradient-78);
      }

      .cls-103, .cls-105, .cls-88 {
        stroke: #fff;
        stroke-linecap: round;
      }

      .cls-88 {
        stroke-width: 1.06px;
      }

      .cls-89, .cls-90, .cls-91 {
        fill: #ace2f9;
      }

      .cls-108, .cls-90 {
        opacity: 0.1;
      }

      .cls-92 {
        fill: url(#linear-gradient-79);
      }

      .cls-93 {
        fill: url(#linear-gradient-80);
      }

      .cls-94 {
        fill: url(#linear-gradient-81);
      }

      .cls-95 {
        fill: url(#linear-gradient-82);
      }

      .cls-96 {
        fill: url(#linear-gradient-83);
      }

      .cls-97 {
        fill: url(#linear-gradient-84);
      }

      .cls-98 {
        fill: url(#linear-gradient-85);
      }

      .cls-99 {
        fill: url(#linear-gradient-86);
      }

      .cls-100 {
        fill: url(#linear-gradient-87);
      }

      .cls-101 {
        fill: url(#linear-gradient-88);
      }

      .cls-102 {
        fill: #98e7f4;
      }

      .cls-103, .cls-105 {
        stroke-linejoin: round;
      }

      .cls-103 {
        stroke-width: 1.58px;
      }

      .cls-104, .cls-106, .cls-107, .cls-108 {
        fill: #bdf3ff;
      }

      .cls-105 {
        stroke-width: 1.47px;
      }

      .cls-109 {
        fill: url(#linear-gradient-89);
      }

      .cls-110 {
        fill: url(#linear-gradient-90);
      }

      .cls-111 {
        fill: url(#linear-gradient-91);
      }

      .cls-112 {
        fill: url(#linear-gradient-92);
      }

      .cls-113 {
        fill: url(#linear-gradient-93);
      }

      .cls-114 {
        fill: url(#linear-gradient-94);
      }

      .cls-115 {
        fill: url(#linear-gradient-95);
      }

      .cls-116 {
        fill: url(#linear-gradient-96);
      }

      .cls-117 {
        stroke: #edf7ff;
        stroke-width: 0.51px;
      }

      .cls-118 {
        fill: url(#linear-gradient-97);
      }

      .cls-119 {
        fill: url(#linear-gradient-98);
      }

      .cls-120 {
        fill: url(#linear-gradient-99);
      }

      .cls-121 {
        fill: url(#linear-gradient-100);
      }

      .cls-122 {
        fill: url(#linear-gradient-101);
      }

      .cls-123 {
        fill: url(#linear-gradient-102);
      }

      .cls-124 {
        fill: url(#linear-gradient-103);
      }

      .cls-125 {
        fill: url(#linear-gradient-104);
      }

      .cls-126 {
        fill: url(#linear-gradient-105);
      }

      .cls-127 {
        stroke: url(#linear-gradient-106);
      }
    </style>
    <linearGradient id="linear-gradient" x1="281.98" y1="172" x2="281.98" y2="370.01" gradientUnits="userSpaceOnUse">
      <stop offset="0" stop-color="#2e48cd"/>
      <stop offset="1" stop-color="#1f237e"/>
    </linearGradient>
    <linearGradient id="linear-gradient-2" x1="365.68" y1="370.88" x2="404.44" y2="345.45" gradientUnits="userSpaceOnUse">
      <stop offset="0" stop-color="#2e3e9d"/>
      <stop offset="1" stop-color="#79d3fd"/>
    </linearGradient>
    <linearGradient id="linear-gradient-3" x1="208.92" y1="344.48" x2="247.68" y2="319.06" gradientTransform="translate(-136.35 499.23) rotate(-81.24)" xlink:href="#linear-gradient-2"/>
    <linearGradient id="linear-gradient-4" x1="281.15" y1="405.42" x2="281.15" y2="310.04" gradientUnits="userSpaceOnUse">
      <stop offset="0" stop-color="#002aa2"/>
      <stop offset="1" stop-color="#79d3fd"/>
    </linearGradient>
    <linearGradient id="linear-gradient-5" x1="412.14" y1="61.9" x2="468.11" y2="117.87" gradientUnits="userSpaceOnUse">
      <stop offset="0" stop-color="#f9dd68"/>
      <stop offset="1" stop-color="#f9a942"/>
    </linearGradient>
    <linearGradient id="linear-gradient-6" x1="430.7" y1="96.51" x2="449.5" y2="77.72" gradientUnits="userSpaceOnUse">
      <stop offset="0" stop-color="#10274a"/>
      <stop offset="1" stop-color="#00347f"/>
    </linearGradient>
    <linearGradient id="linear-gradient-7" x1="423.7" y1="102.38" x2="457.37" y2="136.05" xlink:href="#linear-gradient-6"/>
    <linearGradient id="linear-gradient-8" x1="438.98" y1="107.9" x2="461.99" y2="130.91" gradientUnits="userSpaceOnUse">
      <stop offset="0" stop-color="#fff"/>
      <stop offset="1" stop-color="#79d3fd"/>
    </linearGradient>
    <linearGradient id="linear-gradient-9" x1="428.31" y1="116.97" x2="433.82" y2="122.48" xlink:href="#linear-gradient-6"/>
    <linearGradient id="linear-gradient-10" x1="429.54" y1="118.2" x2="432.67" y2="121.33" xlink:href="#linear-gradient-8"/>
    <linearGradient id="linear-gradient-11" x1="137.1" y1="127.76" x2="165.64" y2="156.3" xlink:href="#linear-gradient-5"/>
    <linearGradient id="linear-gradient-12" x1="136.86" y1="127.99" x2="165.41" y2="156.53" xlink:href="#linear-gradient-5"/>
    <linearGradient id="linear-gradient-13" x1="-302.53" y1="313.07" x2="-336.98" y2="313.07" gradientTransform="matrix(1, 0, 0, -1, 799.08, 626.13)" gradientUnits="userSpaceOnUse">
      <stop offset="0" stop-color="#00006c"/>
      <stop offset="1" stop-color="#5793fb"/>
    </linearGradient>
    <linearGradient id="linear-gradient-14" x1="-315.07" y1="382.71" x2="-315.07" y2="248.72" gradientTransform="matrix(1, 0, 0, -1, 792.5, 626.13)" gradientUnits="userSpaceOnUse">
      <stop offset="0" stop-color="#5793fb"/>
      <stop offset="0.99" stop-color="#00009a"/>
    </linearGradient>
    <linearGradient id="linear-gradient-15" x1="-322.88" y1="280.61" x2="-322.88" y2="193.2" gradientTransform="matrix(-1, 0, 0, 1, 162.35, 0)" xlink:href="#linear-gradient-13"/>
    <linearGradient id="linear-gradient-16" x1="-320.67" y1="278.12" x2="-320.67" y2="192.66" gradientTransform="matrix(-1, 0, 0, 1, 162.35, 0)" gradientUnits="userSpaceOnUse">
      <stop offset="0" stop-color="#a6e5d4"/>
      <stop offset="1" stop-color="#79d3fd"/>
    </linearGradient>
    <linearGradient id="linear-gradient-17" x1="431.66" y1="233.7" x2="534.39" y2="233.7" gradientUnits="userSpaceOnUse">
      <stop offset="0" stop-color="#2c89fb"/>
      <stop offset="1" stop-color="#0059ff"/>
    </linearGradient>
    <linearGradient id="linear-gradient-18" x1="461.92" y1="222.7" x2="497.98" y2="222.7" gradientTransform="matrix(1, 0, 0, 1, 0, 0)" xlink:href="#linear-gradient-16"/>
    <linearGradient id="linear-gradient-19" x1="499.71" y1="247.46" x2="519.5" y2="247.46" gradientTransform="matrix(1, 0, 0, 1, 0, 0)" xlink:href="#linear-gradient-16"/>
    <linearGradient id="linear-gradient-20" x1="466.57" y1="255.5" x2="507.33" y2="255.5" gradientTransform="matrix(1, 0, 0, 1, 0, 0)" xlink:href="#linear-gradient-16"/>
    <linearGradient id="linear-gradient-21" x1="470.45" y1="255.82" x2="503.48" y2="255.82" gradientTransform="matrix(1, 0, 0, 1, 0, 0)" xlink:href="#linear-gradient-16"/>
    <linearGradient id="linear-gradient-22" x1="504.48" y1="210.28" x2="524.29" y2="210.28" gradientTransform="matrix(1, 0, 0, 1, 0, 0)" xlink:href="#linear-gradient-16"/>
    <linearGradient id="linear-gradient-23" x1="-168.15" y1="219.03" x2="-157.94" y2="219.03" gradientTransform="matrix(-1, 0, -0.32, 1, 419.05, 0)" gradientUnits="userSpaceOnUse">
      <stop offset="0" stop-color="#fff"/>
      <stop offset="1" stop-color="#e2f5ff"/>
    </linearGradient>
    <linearGradient id="linear-gradient-24" x1="-168.44" y1="220.86" x2="-158.23" y2="220.86" xlink:href="#linear-gradient-23"/>
    <linearGradient id="linear-gradient-25" x1="-168.73" y1="222.7" x2="-158.52" y2="222.7" xlink:href="#linear-gradient-23"/>
    <linearGradient id="linear-gradient-26" x1="-169.02" y1="224.54" x2="-163.91" y2="224.54" xlink:href="#linear-gradient-23"/>
    <linearGradient id="linear-gradient-27" x1="-116.29" y1="250.57" x2="-106.09" y2="250.57" xlink:href="#linear-gradient-23"/>
    <linearGradient id="linear-gradient-28" x1="-116.58" y1="252.41" x2="-106.38" y2="252.41" xlink:href="#linear-gradient-23"/>
    <linearGradient id="linear-gradient-29" x1="-116.87" y1="254.24" x2="-106.67" y2="254.24" xlink:href="#linear-gradient-23"/>
    <linearGradient id="linear-gradient-30" x1="-117.17" y1="256.08" x2="-112.06" y2="256.08" xlink:href="#linear-gradient-23"/>
    <linearGradient id="linear-gradient-31" x1="-107.34" y1="208.93" x2="-97.14" y2="208.93" xlink:href="#linear-gradient-23"/>
    <linearGradient id="linear-gradient-32" x1="-107.64" y1="210.77" x2="-97.43" y2="210.77" xlink:href="#linear-gradient-23"/>
    <linearGradient id="linear-gradient-33" x1="-107.93" y1="212.61" x2="-102.82" y2="212.61" xlink:href="#linear-gradient-23"/>
    <linearGradient id="linear-gradient-34" x1="283.32" y1="267.39" x2="283.32" y2="105.84" gradientUnits="userSpaceOnUse">
      <stop offset="0" stop-color="#8affff"/>
      <stop offset="1" stop-color="#79d3fd" stop-opacity="0"/>
    </linearGradient>
    <linearGradient id="linear-gradient-36" x1="283.32" y1="404.89" x2="283.32" y2="279.53" gradientUnits="userSpaceOnUse">
      <stop offset="0" stop-color="#8affff"/>
      <stop offset="1" stop-color="#423bfd"/>
    </linearGradient>
    <linearGradient id="linear-gradient-37" x1="283.32" y1="382.48" x2="283.32" y2="284.85" gradientUnits="userSpaceOnUse">
      <stop offset="0" stop-color="#8affff"/>
      <stop offset="1" stop-color="#79d3fd"/>
    </linearGradient>
    <linearGradient id="linear-gradient-38" x1="229.05" y1="274.58" x2="337.59" y2="274.58" xlink:href="#linear-gradient-37"/>
    <linearGradient id="linear-gradient-39" x1="232.38" y1="284.43" x2="360.44" y2="284.43" xlink:href="#linear-gradient-2"/>
    <linearGradient id="linear-gradient-40" x1="270.76" y1="382.76" x2="270.76" y2="281.78" gradientUnits="userSpaceOnUse">
      <stop offset="0" stop-color="#79d3fd"/>
      <stop offset="1" stop-color="#fff"/>
    </linearGradient>
    <linearGradient id="linear-gradient-41" x1="283.32" y1="382.76" x2="283.32" y2="281.78" xlink:href="#linear-gradient-40"/>
    <linearGradient id="linear-gradient-42" x1="295.88" y1="382.76" x2="295.88" y2="281.78" xlink:href="#linear-gradient-40"/>
    <linearGradient id="linear-gradient-43" x1="302.39" y1="182.79" x2="276.79" y2="230.53" xlink:href="#linear-gradient-5"/>
    <linearGradient id="linear-gradient-44" x1="236.17" y1="186.67" x2="324.51" y2="186.67" xlink:href="#linear-gradient-5"/>
    <linearGradient id="linear-gradient-45" x1="241.27" y1="186.67" x2="319.41" y2="186.67" xlink:href="#linear-gradient-5"/>
    <linearGradient id="linear-gradient-46" x1="256.69" y1="182.07" x2="300.87" y2="205.27" xlink:href="#linear-gradient-5"/>
    <linearGradient id="linear-gradient-47" x1="260.68" y1="174.47" x2="304.86" y2="197.67" xlink:href="#linear-gradient-5"/>
    <linearGradient id="linear-gradient-48" x1="264.56" y1="167.08" x2="308.74" y2="190.28" xlink:href="#linear-gradient-5"/>
    <linearGradient id="linear-gradient-49" x1="243.58" y1="130.81" x2="252.12" y2="130.81" xlink:href="#linear-gradient-5"/>
    <linearGradient id="linear-gradient-50" x1="248.76" y1="244.99" x2="259.7" y2="244.99" xlink:href="#linear-gradient-5"/>
    <linearGradient id="linear-gradient-51" x1="317.38" y1="231.7" x2="321.45" y2="231.7" xlink:href="#linear-gradient-5"/>
    <linearGradient id="linear-gradient-52" x1="285.24" y1="259.27" x2="288.55" y2="259.27" xlink:href="#linear-gradient-5"/>
    <linearGradient id="linear-gradient-53" x1="225.74" y1="173.79" x2="229.05" y2="173.79" xlink:href="#linear-gradient-5"/>
    <linearGradient id="linear-gradient-54" x1="305.52" y1="132.46" x2="308.83" y2="132.46" xlink:href="#linear-gradient-5"/>
    <linearGradient id="linear-gradient-55" x1="307.18" y1="247.95" x2="312.18" y2="247.95" xlink:href="#linear-gradient-5"/>
    <linearGradient id="linear-gradient-56" x1="332.91" y1="165.92" x2="337.92" y2="165.92" xlink:href="#linear-gradient-5"/>
    <linearGradient id="linear-gradient-57" x1="425.88" y1="378.58" x2="447.3" y2="378.58" gradientUnits="userSpaceOnUse">
      <stop offset="0" stop-color="aqua"/>
      <stop offset="1" stop-color="#5793fb"/>
    </linearGradient>
    <linearGradient id="linear-gradient-58" x1="381.72" y1="376.95" x2="402.87" y2="376.95" xlink:href="#linear-gradient-57"/>
    <linearGradient id="linear-gradient-59" x1="406.1" y1="268.91" x2="406.1" y2="351.43" gradientUnits="userSpaceOnUse">
      <stop offset="0" stop-color="#00004f"/>
      <stop offset="1" stop-color="#000079"/>
    </linearGradient>
    <linearGradient id="linear-gradient-60" x1="416.69" y1="290.22" x2="416.69" y2="321.02" gradientUnits="userSpaceOnUse">
      <stop offset="0" stop-color="#00006c"/>
      <stop offset="1" stop-color="#3049b9"/>
    </linearGradient>
    <linearGradient id="linear-gradient-61" x1="423.56" y1="264.66" x2="423.56" y2="350.69" xlink:href="#linear-gradient-59"/>
    <linearGradient id="linear-gradient-62" x1="432.88" y1="164.35" x2="432.88" y2="193.79" gradientUnits="userSpaceOnUse">
      <stop offset="0" stop-color="#00b5ff"/>
      <stop offset="1" stop-color="#3049b9"/>
    </linearGradient>
    <linearGradient id="linear-gradient-63" x1="417.7" y1="268.87" x2="417.7" y2="208.95" gradientUnits="userSpaceOnUse">
      <stop offset="0" stop-color="#7995fd"/>
      <stop offset="1" stop-color="#54deff"/>
    </linearGradient>
    <linearGradient id="linear-gradient-64" x1="439.92" y1="231.48" x2="430.23" y2="211.84" xlink:href="#linear-gradient-63"/>
    <linearGradient id="linear-gradient-65" x1="375.81" y1="158.09" x2="402.04" y2="183.34" xlink:href="#linear-gradient-17"/>
    <linearGradient id="linear-gradient-66" x1="130.01" y1="271.39" x2="137.72" y2="373.8" gradientTransform="matrix(1, 0, 0, 1, 0, 0)" xlink:href="#linear-gradient-13"/>
    <linearGradient id="linear-gradient-67" x1="109.88" y1="265.72" x2="117.5" y2="366.88" gradientTransform="matrix(1, 0, 0, 1, 0, 0)" xlink:href="#linear-gradient-13"/>
    <linearGradient id="linear-gradient-68" x1="164.87" y1="377.47" x2="141.24" y2="381.77" xlink:href="#linear-gradient-60"/>
    <linearGradient id="linear-gradient-69" x1="134.35" y1="379.73" x2="150.91" y2="376.85" xlink:href="#linear-gradient-57"/>
    <linearGradient id="linear-gradient-70" x1="89.29" y1="373.71" x2="107.34" y2="383.04" xlink:href="#linear-gradient-57"/>
    <linearGradient id="linear-gradient-71" x1="133.56" y1="174.04" x2="128.92" y2="204.64" gradientUnits="userSpaceOnUse">
      <stop offset="0" stop-color="#000051"/>
      <stop offset="1" stop-color="#30389c"/>
    </linearGradient>
    <linearGradient id="linear-gradient-72" x1="126.74" y1="173" x2="122.1" y2="203.61" xlink:href="#linear-gradient-71"/>
    <linearGradient id="linear-gradient-73" x1="149.68" y1="242.58" x2="149.68" y2="213.41" xlink:href="#linear-gradient-63"/>
    <linearGradient id="linear-gradient-74" x1="123.14" y1="272.7" x2="123.14" y2="213.29" xlink:href="#linear-gradient-63"/>
    <linearGradient id="linear-gradient-75" x1="130.24" y1="260.65" x2="112.28" y2="224.45" gradientTransform="translate(281.46 465.09) rotate(170.76)" gradientUnits="userSpaceOnUse">
      <stop offset="0" stop-color="#160ec0"/>
      <stop offset="1" stop-color="#5451ff"/>
    </linearGradient>
    <linearGradient id="linear-gradient-76" x1="108.89" y1="241.16" x2="108.89" y2="216.69" xlink:href="#linear-gradient-63"/>
    <linearGradient id="linear-gradient-77" x1="8.77" y1="196.27" x2="68.11" y2="196.27" xlink:href="#linear-gradient-17"/>
    <linearGradient id="linear-gradient-78" x1="14.04" y1="196.27" x2="40.63" y2="196.27" xlink:href="#linear-gradient-37"/>
    <linearGradient id="linear-gradient-79" x1="165.97" y1="272.13" x2="214.33" y2="272.13" xlink:href="#linear-gradient-17"/>
    <linearGradient id="linear-gradient-80" x1="169.6" y1="281.27" x2="198.94" y2="281.27" xlink:href="#linear-gradient-37"/>
    <linearGradient id="linear-gradient-81" x1="180.34" y1="276.47" x2="210.96" y2="276.47" xlink:href="#linear-gradient-37"/>
    <linearGradient id="linear-gradient-82" x1="178.22" y1="255.69" x2="189.59" y2="267.06" xlink:href="#linear-gradient-5"/>
    <linearGradient id="linear-gradient-83" x1="191.88" y1="74.51" x2="210.24" y2="74.51" xlink:href="#linear-gradient-17"/>
    <linearGradient id="linear-gradient-84" x1="181.14" y1="94.61" x2="220.98" y2="94.61" xlink:href="#linear-gradient-17"/>
    <linearGradient id="linear-gradient-85" x1="222.59" y1="54.61" x2="224.16" y2="56.18" xlink:href="#linear-gradient-5"/>
    <linearGradient id="linear-gradient-86" x1="227.65" y1="54.61" x2="229.23" y2="56.18" xlink:href="#linear-gradient-5"/>
    <linearGradient id="linear-gradient-87" x1="232.72" y1="54.61" x2="234.29" y2="56.18" xlink:href="#linear-gradient-5"/>
    <linearGradient id="linear-gradient-88" x1="170.83" y1="47.01" x2="231.28" y2="107.46" xlink:href="#linear-gradient-5"/>
    <linearGradient id="linear-gradient-89" x1="512.96" y1="289.79" x2="562.88" y2="339.71" xlink:href="#linear-gradient-17"/>
    <linearGradient id="linear-gradient-90" x1="520.85" y1="296.08" x2="555.54" y2="330.77" xlink:href="#linear-gradient-5"/>
    <linearGradient id="linear-gradient-91" x1="528.01" y1="321.17" x2="548.88" y2="342.04" xlink:href="#linear-gradient-6"/>
    <linearGradient id="linear-gradient-92" x1="537.48" y1="324.59" x2="551.75" y2="338.86" xlink:href="#linear-gradient-8"/>
    <linearGradient id="linear-gradient-93" x1="530.87" y1="330.21" x2="534.29" y2="333.63" xlink:href="#linear-gradient-6"/>
    <linearGradient id="linear-gradient-94" x1="531.64" y1="330.98" x2="533.57" y2="332.92" xlink:href="#linear-gradient-8"/>
    <linearGradient id="linear-gradient-95" x1="533.45" y1="309.17" x2="543.69" y2="319.42" xlink:href="#linear-gradient-6"/>
    <linearGradient id="linear-gradient-96" x1="317.62" y1="76.41" x2="365.02" y2="123.81" xlink:href="#linear-gradient-17"/>
    <linearGradient id="linear-gradient-97" x1="329.6" y1="89.45" x2="332.98" y2="92.83" xlink:href="#linear-gradient"/>
    <linearGradient id="linear-gradient-98" x1="361.31" y1="89.45" x2="364.69" y2="92.83" gradientTransform="matrix(-1, 0, 0, 1, 713.62, 0)" xlink:href="#linear-gradient"/>
    <linearGradient id="linear-gradient-99" x1="333.73" y1="101.35" x2="337.95" y2="101.35" xlink:href="#linear-gradient"/>
    <linearGradient id="linear-gradient-100" x1="343.96" y1="101.35" x2="348.18" y2="101.35" xlink:href="#linear-gradient"/>
    <linearGradient id="linear-gradient-101" x1="326.06" y1="97.83" x2="332.77" y2="97.83" xlink:href="#linear-gradient-63"/>
    <linearGradient id="linear-gradient-102" x1="355.18" y1="99.05" x2="349.81" y2="93.68" xlink:href="#linear-gradient-63"/>
    <linearGradient id="linear-gradient-103" x1="353.14" y1="101.09" x2="347.77" y2="95.72" xlink:href="#linear-gradient-63"/>
    <linearGradient id="linear-gradient-104" x1="355.18" y1="99.05" x2="349.81" y2="93.68" xlink:href="#linear-gradient-63"/>
    <linearGradient id="linear-gradient-105" x1="353.14" y1="101.09" x2="347.77" y2="95.72" xlink:href="#linear-gradient-63"/>
    <linearGradient id="linear-gradient-106" y1="382.71" x2="569.48" y2="382.71" gradientUnits="userSpaceOnUse">
      <stop offset="0" stop-color="#2effff"/>
      <stop offset="1" stop-color="#79d3fd"/>
    </linearGradient>
  </defs>
  <g class="cls-1">
    <g id="Layer_2" data-name="Layer 2">
      <g id="OBJECTS">
        <g>
          <g class="cls-2">
            <path class="cls-3" d="M29.41,382.71c-9.17-39,1.1-65.79,30.66-85.88,21.52-14.62,65.93-26.66,81.3-47.64,6.62-9,10.28-19.83,14.92-30,19.94-43.83,64-79.15,112.09-77.34,32.47,1.22,62.37,18.58,86.71,40.1,17.51,15.49,33.69,33.83,55.63,41.89s68,14.38,86.31,29.09c57.87,46.59,39.64,107.77,31.54,129.66"/>
          </g>
          <g>
            <path class="cls-4" d="M363.53,367.16s21-30.83,31.65-15.17c10,14.74-27.15,22.38-27.15,22.38"/>
            <path class="cls-5" d="M231.91,346.77s-27.26-25.48-10.17-33.59c16.09-7.64,18,30.25,18,30.25"/>
            <path class="cls-6" d="M421,382.33H141.3c.17-.65,1.2-1.73,4-3.51,5.95-3.84,24.75-.39,24.75-.39s-4.38-1.75-4.36-4a6.16,6.16,0,0,1,3.79-5.19,14.4,14.4,0,0,1,6.68-.88,42.86,42.86,0,0,1,13.43,3,3.9,3.9,0,1,1,4.51-6.33c-2.89-3.9-9.66-23.59,4-31.23,17.2-9.57,32.58.66,35.36,6.42,1.41-5.65,7.89-10,12.17-11,20.4-4.91,35.3,12.61,35.49,12.91.2-.3.4-.6.62-.9,2.14-2.83,6.45-8,9.67-9.46,9.1-4.25,15.44-5,25.2-2.55,4.27,1,10.76,5.34,12.18,11,2.78-5.76,18.39-18.68,35.11-8.31,15.21,9.42,7.18,29.22,4.29,33.12a3.9,3.9,0,1,1,4.51,6.33,42.86,42.86,0,0,1,13.43-3,14.38,14.38,0,0,1,6.68.88,6.15,6.15,0,0,1,3.79,5.19c0,2.27-4.35,4-4.35,4s18.79-3.45,24.74.39C419.8,380.6,420.83,381.68,421,382.33Z"/>
          </g>
          <g>
            <rect class="cls-7" x="410.87" y="67.4" width="60.54" height="47" rx="4.33"/>
            <path class="cls-8" d="M433.65,81.18,448.84,90a1.09,1.09,0,0,1,0,1.89l-15.19,8.77a1.09,1.09,0,0,1-1.63-.94V82.13A1.09,1.09,0,0,1,433.65,81.18Z"/>
            <path class="cls-9" d="M470.08,121.15H412.2a1.33,1.33,0,0,1-1.33-1.33h0a1.33,1.33,0,0,1,1.33-1.33h57.88a1.33,1.33,0,0,1,1.33,1.33h0A1.33,1.33,0,0,1,470.08,121.15Z"/>
            <path class="cls-10" d="M471.42,119.82a1.33,1.33,0,0,1-1.34,1.33H431.17v-2.66h38.91A1.33,1.33,0,0,1,471.42,119.82Z"/>
            <path class="cls-11" d="M434.73,119.82a3.57,3.57,0,1,1-3.57-3.57A3.57,3.57,0,0,1,434.73,119.82Z"/>
            <path class="cls-12" d="M433.18,119.82a2,2,0,1,1-2-2A2,2,0,0,1,433.18,119.82Z"/>
          </g>
          <g>
            <path class="cls-13" d="M152.06,162.43a19.71,19.71,0,1,1,19.71-19.71A19.73,19.73,0,0,1,152.06,162.43Zm0-36.81a17.11,17.11,0,1,0,17.11,17.1A17.12,17.12,0,0,0,152.06,125.62Z"/>
            <path class="cls-14" d="M160.74,147.38a4.91,4.91,0,0,0-1-3.15,6.2,6.2,0,0,0-2.44-1.83,22.63,22.63,0,0,0-3.43-1.07V135a12.08,12.08,0,0,1,2.91.74,1.71,1.71,0,0,0,2.24-.94,1.78,1.78,0,0,0,0-1.36,1.58,1.58,0,0,0-.86-.86,16,16,0,0,0-4.28-1v-1.94a1.85,1.85,0,0,0-3.7,0v2a8.73,8.73,0,0,0-5,2.16,5.72,5.72,0,0,0-1.8,4.26,5,5,0,0,0,1,3.18,6.49,6.49,0,0,0,2.47,1.85,24.81,24.81,0,0,0,3.4,1.1v6.27a13.53,13.53,0,0,1-3.24-.77,9.42,9.42,0,0,1-1.08-.45,1.58,1.58,0,0,0-.65-.14,1.54,1.54,0,0,0-.56.1,1.79,1.79,0,0,0-1,.93,1.74,1.74,0,0,0,.85,2.28,16.61,16.61,0,0,0,1.57.61,17.49,17.49,0,0,0,4.11.79v1.93a1.85,1.85,0,0,0,3.7,0v-2a8.8,8.8,0,0,0,5-2.17A5.63,5.63,0,0,0,160.74,147.38Zm-12.3-7.89a2.07,2.07,0,0,1-.76-1.65,2.52,2.52,0,0,1,.7-1.75,3.73,3.73,0,0,1,1.83-1v5.29A5.41,5.41,0,0,1,148.44,139.49Zm7.3,10a3.71,3.71,0,0,1-1.83.91v-5.19a5.52,5.52,0,0,1,1.79,1,2.08,2.08,0,0,1,.74,1.64A2.31,2.31,0,0,1,155.74,149.45Z"/>
          </g>
          <g>
            <rect class="cls-15" x="463.29" y="243.42" width="34.85" height="139.29" transform="translate(961.43 626.13) rotate(180)"/>
            <rect class="cls-16" x="461.33" y="243.42" width="32.18" height="139.29" transform="translate(954.85 626.13) rotate(180)"/>
            <path class="cls-17" d="M427.12,277.72l4.94-.59L445.25,194a1.63,1.63,0,0,1,1.61-1.38h91.23l.9-2.85,3.62,2.29.11.08h0a1.64,1.64,0,0,1,.6,1.53l-13.58,85.58a1.63,1.63,0,0,1-1.61,1.38H432.07a1.62,1.62,0,0,1-1.09-.43h0Z"/>
            <path class="cls-18" d="M428.2,278.12h96.08a1.63,1.63,0,0,0,1.61-1.37l13.57-85.59a1.63,1.63,0,0,0-1.61-1.88H441.78a1.63,1.63,0,0,0-1.62,1.37l-13.57,85.59A1.63,1.63,0,0,0,428.2,278.12Z"/>
            <path class="cls-19" d="M432.69,274.06h88.19a1,1,0,0,0,1-.87l12.47-78.65a1,1,0,0,0-1-1.2H445.17a1,1,0,0,0-1,.88l-12.48,78.64A1,1,0,0,0,432.69,274.06Z"/>
            <path class="cls-20" d="M463.23,237h29.32a1.31,1.31,0,0,0,1.29-1.1l4.12-26a1.31,1.31,0,0,0-1.29-1.52H467.35a1.31,1.31,0,0,0-1.29,1.11l-4.12,26A1.31,1.31,0,0,0,463.23,237Z"/>
            <g>
              <path class="cls-21" d="M468.81,233.47h-2a.45.45,0,0,1-.45-.54l2.42-15.25a.66.66,0,0,1,.63-.53h2a.44.44,0,0,1,.45.53l-2.42,15.25A.66.66,0,0,1,468.81,233.47Z"/>
              <path class="cls-21" d="M474,233.47h-2a.44.44,0,0,1-.45-.54l1.92-12.09a.64.64,0,0,1,.62-.53h2a.44.44,0,0,1,.45.53l-1.92,12.09A.64.64,0,0,1,474,233.47Z"/>
              <path class="cls-21" d="M479.26,233.47h-2a.45.45,0,0,1-.45-.54l2.28-14.34a.66.66,0,0,1,.62-.54h2a.45.45,0,0,1,.45.54l-2.28,14.34A.66.66,0,0,1,479.26,233.47Z"/>
              <path class="cls-21" d="M484.48,233.47h-2a.44.44,0,0,1-.45-.54l3.4-21.44A.66.66,0,0,1,486,211h2a.44.44,0,0,1,.45.54l-3.41,21.44A.64.64,0,0,1,484.48,233.47Z"/>
              <path class="cls-21" d="M489.71,233.47h-2a.45.45,0,0,1-.45-.54l2.7-17a.66.66,0,0,1,.62-.53h2a.44.44,0,0,1,.45.53l-2.7,17A.65.65,0,0,1,489.71,233.47Z"/>
            </g>
            <path class="cls-22" d="M500.43,255.31h16.09a.71.71,0,0,0,.71-.61l2.26-14.25a.72.72,0,0,0-.71-.83H502.69a.72.72,0,0,0-.71.61l-2.26,14.25A.72.72,0,0,0,500.43,255.31Z"/>
            <path class="cls-23" d="M467.55,266.17h35.72a1,1,0,0,0,1-.82L507.31,246a1,1,0,0,0-1-1.13H470.63a1,1,0,0,0-1,.82L466.58,265A1,1,0,0,0,467.55,266.17Z"/>
            <path class="cls-24" d="M471.75,253.15l-1.3,8.19h31.42l1.61-10.13a5.05,5.05,0,0,0-4.61.41c-2.07,1.13-5.07,4.42-7.14,4.18s-3.36-5.53-6.18-5.49-5.12,5.84-7.38,5.9S473.23,253.08,471.75,253.15Z"/>
            <path class="cls-25" d="M505,215.47h17.36a.47.47,0,0,0,.47-.4l1.5-9.42a.49.49,0,0,0-.47-.56H506.45a.47.47,0,0,0-.47.41l-1.5,9.42A.48.48,0,0,0,505,215.47Z"/>
            <g>
              <path class="cls-26" d="M508,219.52h9.22a.59.59,0,0,0,.56-.49h0a.4.4,0,0,0-.41-.49h-9.21a.59.59,0,0,0-.57.49h0A.41.41,0,0,0,508,219.52Z"/>
              <path class="cls-27" d="M507.73,221.35h9.21a.59.59,0,0,0,.57-.49h0a.4.4,0,0,0-.41-.49h-9.21a.6.6,0,0,0-.57.49h0A.41.41,0,0,0,507.73,221.35Z"/>
              <path class="cls-28" d="M507.44,223.19h9.21a.6.6,0,0,0,.57-.49h0a.41.41,0,0,0-.41-.49h-9.22a.59.59,0,0,0-.56.49h0A.4.4,0,0,0,507.44,223.19Z"/>
              <path class="cls-29" d="M512.25,225h4.11a.6.6,0,0,0,.57-.49h0a.41.41,0,0,0-.41-.49H512.4a.61.61,0,0,0-.57.49h0A.41.41,0,0,0,512.25,225Z"/>
            </g>
            <g>
              <path class="cls-30" d="M446.17,251.06h9.22a.59.59,0,0,0,.56-.49h0a.4.4,0,0,0-.41-.49h-9.21a.6.6,0,0,0-.57.49h0A.41.41,0,0,0,446.17,251.06Z"/>
              <path class="cls-31" d="M445.88,252.9h9.22a.59.59,0,0,0,.56-.49h0a.4.4,0,0,0-.41-.49H446a.6.6,0,0,0-.57.49h0A.41.41,0,0,0,445.88,252.9Z"/>
              <path class="cls-32" d="M445.59,254.73h9.22a.59.59,0,0,0,.56-.49h0a.4.4,0,0,0-.41-.49h-9.21a.6.6,0,0,0-.57.49h0A.41.41,0,0,0,445.59,254.73Z"/>
              <path class="cls-33" d="M450.4,256.57h4.11a.6.6,0,0,0,.57-.49h0a.41.41,0,0,0-.41-.49h-4.12a.61.61,0,0,0-.57.49h0A.41.41,0,0,0,450.4,256.57Z"/>
            </g>
            <g>
              <path class="cls-34" d="M450.42,209.42h9.21a.61.61,0,0,0,.57-.49h0a.41.41,0,0,0-.42-.49h-9.21a.61.61,0,0,0-.57.49h0A.41.41,0,0,0,450.42,209.42Z"/>
              <path class="cls-35" d="M450.12,211.26h9.22a.61.61,0,0,0,.57-.49h0a.41.41,0,0,0-.42-.49h-9.21a.6.6,0,0,0-.57.49h0A.41.41,0,0,0,450.12,211.26Z"/>
              <path class="cls-36" d="M454.93,213.1h4.12a.59.59,0,0,0,.56-.49h0a.4.4,0,0,0-.41-.49h-4.11a.59.59,0,0,0-.57.49h0A.41.41,0,0,0,454.93,213.1Z"/>
            </g>
          </g>
          <g>
            <polygon class="cls-37" points="319.27 267.39 247.37 267.39 193.3 102.45 373.34 102.45 319.27 267.39"/>
            <polygon class="cls-38" points="329.69 267.39 236.95 267.39 159.93 102.45 406.71 102.45 329.69 267.39"/>
            <g>
              <rect class="cls-39" x="233.73" y="267.39" width="99.18" height="115.32"/>
              <rect class="cls-40" x="253.73" y="267.39" width="59.18" height="115.32"/>
              <rect class="cls-41" x="229.05" y="267.39" width="108.54" height="14.38" rx="0.71"/>
              <rect class="cls-42" x="233.73" y="281.78" width="99.18" height="5.31"/>
              <g>
                <line class="cls-43" x1="270.76" y1="281.78" x2="270.76" y2="382.76"/>
                <line class="cls-44" x1="283.32" y1="281.78" x2="283.32" y2="382.76"/>
                <line class="cls-45" x1="295.88" y1="281.78" x2="295.88" y2="382.76"/>
              </g>
            </g>
            <path class="cls-46" d="M329.19,176.32a36.85,36.85,0,0,0-1.8-5.31,37.4,37.4,0,0,0-1.94-3.91,34.49,34.49,0,0,0-2.1-3.24c-.71-1-1.46-1.9-2.26-2.8-.3-.34-.62-.68-.94-1l-5.95-6.15c.32.33.63.66.94,1,.8.9,1.55,1.83,2.26,2.8a37.6,37.6,0,0,1,2.1,3.25,35.55,35.55,0,0,1,1.94,3.91,37.25,37.25,0,0,1,1.8,5.31,42.18,42.18,0,0,1,.41,18.77,45,45,0,0,1-1.23,4.9,50.67,50.67,0,0,1-2.18,5.77q-1,2.2-2.18,4.3c-.72,1.26-1.49,2.49-2.3,3.68s-1.59,2.23-2.45,3.29-1.7,2.05-2.61,3-1.85,1.92-2.83,2.83-2.05,1.83-3.12,2.68-2.33,1.78-3.54,2.6-2.75,1.75-4.18,2.53a50.05,50.05,0,0,1-5.39,2.56,46.53,46.53,0,0,1-19.9,3.45,37.31,37.31,0,0,1-25.26-11.12l6,6.16a37.31,37.31,0,0,0,25.26,11.12,46.53,46.53,0,0,0,19.9-3.45A52,52,0,0,0,303,230.7q2.14-1.17,4.18-2.53c1.21-.82,2.4-1.69,3.54-2.6s2.12-1.75,3.12-2.68,1.93-1.85,2.84-2.83,1.77-2,2.61-3,1.67-2.16,2.44-3.29,1.58-2.42,2.3-3.68,1.53-2.84,2.19-4.3a48.8,48.8,0,0,0,2.17-5.77,47.47,47.47,0,0,0,1.24-4.9A42.22,42.22,0,0,0,329.19,176.32Z"/>
            <path class="cls-47" d="M289,142.78c23.92,1.25,39.46,21.92,34.7,46.16s-28,42.87-51.91,41.61S232.28,208.64,237,184.4,265,141.53,289,142.78Z"/>
            <g class="cls-48">
              <path class="cls-49" d="M288,147.84c21.16,1.11,34.9,19.39,30.7,40.84s-24.77,37.92-45.93,36.81S237.82,206.1,242,184.66,266.79,146.73,288,147.84Z"/>
            </g>
            <g>
              <g class="cls-1">
                <polygon class="cls-50" points="255.96 194.21 257.82 196.14 252.5 195.86 250.64 193.93 255.96 194.21"/>
                <polygon class="cls-50" points="257.99 183.85 259.85 185.77 257.82 196.14 255.96 194.21 257.99 183.85"/>
                <polygon class="cls-50" points="258.92 174.72 260.78 176.64 267.22 187.45 265.36 185.53 258.92 174.72"/>
                <polygon class="cls-50" points="268.9 194.89 270.76 196.81 266.29 196.58 264.43 194.66 268.9 194.89"/>
                <polygon class="cls-50" points="272.72 175.44 274.58 177.37 270.76 196.81 268.9 194.89 272.72 175.44"/>
                <polygon class="cls-51" points="272.72 175.44 268.9 194.89 264.43 194.66 257.99 183.85 255.96 194.21 250.64 193.93 254.46 174.48 258.92 174.72 265.36 185.53 267.39 175.16 272.72 175.44"/>
              </g>
              <g class="cls-1">
                <g>
                  <polygon class="cls-50" points="291.61 176.43 290.78 180.68 281.15 180.17 280.31 184.46 282.17 186.38 283.01 182.1 292.64 182.6 293.47 178.35 291.61 176.43"/>
                  <polygon class="cls-50" points="287.95 189.15 279.48 188.71 278.17 195.38 272.74 195.09 274.6 197.02 280.03 197.3 281.34 190.63 289.81 191.07 290.64 186.83 288.78 184.9 287.95 189.15"/>
                </g>
                <polygon class="cls-52" points="291.61 176.43 290.78 180.68 281.15 180.17 280.31 184.46 288.78 184.9 287.95 189.15 279.48 188.71 278.17 195.38 272.74 195.09 276.56 175.64 291.61 176.43"/>
              </g>
              <g class="cls-1">
                <g>
                  <polygon class="cls-50" points="297.53 181.15 291.63 180.84 293.49 182.76 299.39 183.07 297.53 181.15"/>
                  <polygon class="cls-50" points="309.68 177.38 308.82 181.74 302.95 181.43 300 196.52 294.57 196.24 296.43 198.16 301.86 198.44 304.81 183.36 310.68 183.67 311.54 179.3 309.68 177.38"/>
                </g>
                <polygon class="cls-53" points="309.68 177.38 308.82 181.74 302.95 181.43 300 196.52 294.57 196.24 297.53 181.15 291.63 180.84 292.49 176.48 309.68 177.38"/>
              </g>
            </g>
            <g>
              <circle class="cls-54" cx="247.85" cy="130.81" r="4.27"/>
              <path class="cls-55" d="M259.7,245a5.47,5.47,0,1,1-5.47-5.47A5.47,5.47,0,0,1,259.7,245Z"/>
              <path class="cls-56" d="M321.45,231.7a2,2,0,1,1-2-2A2,2,0,0,1,321.45,231.7Z"/>
              <path class="cls-57" d="M288.55,259.27a1.66,1.66,0,1,1-1.66-1.66A1.65,1.65,0,0,1,288.55,259.27Z"/>
              <path class="cls-58" d="M229.05,173.79a1.66,1.66,0,1,1-1.65-1.66A1.65,1.65,0,0,1,229.05,173.79Z"/>
              <path class="cls-59" d="M308.83,132.46a1.66,1.66,0,1,1-1.65-1.65A1.65,1.65,0,0,1,308.83,132.46Z"/>
              <circle class="cls-60" cx="309.68" cy="247.95" r="2.5"/>
              <path class="cls-61" d="M337.92,165.92a2.51,2.51,0,1,1-2.5-2.5A2.51,2.51,0,0,1,337.92,165.92Z"/>
            </g>
          </g>
          <g>
            <g>
              <path class="cls-62" d="M452.7,209.79a.55.55,0,0,0-.42-.08.22.22,0,0,0,0-.16c-.17-.16-.69,0-1.27.12q.07-.18,0-.27c-.25-.22-.75,0-.75,0l-3.28,1.44-.12.15a4.17,4.17,0,0,0-.38.27,12.45,12.45,0,0,0-1.29,1.4,8,8,0,0,1-3.24,2.39l-13.16,5.32,10.54.71s4.43-2.83,5.73-3.1,3-.18,3.68-.9,2.51-2.47,2.45-3.21c-.05-.56-.53-.43-.7-.36a18.07,18.07,0,0,0-1.83,1.4c-.28.17-1.32.37-1.67-.09L448.7,213a16.86,16.86,0,0,1,2.53-1.7C452.47,210.63,453,210,452.7,209.79Z"/>
              <g>
                <path class="cls-62" d="M427.14,367l.34,7.59s4.31,1.85,7.73,0l.92-9.18"/>
                <path class="cls-63" d="M427.48,374.6a6,6,0,0,0-1.5,3.08,22.46,22.46,0,0,0,.08,4.65c0,.2,5,.1,10.07.13,5.3,0,10.71.2,11.13,0,.82-.37-12.05-7.86-12.05-7.86A19,19,0,0,1,427.48,374.6Z"/>
              </g>
              <g>
                <path class="cls-62" d="M387.89,363.89l-2.19,7.28s3.07,3.13,6.92,2.51l3.71-8.91"/>
                <path class="cls-64" d="M383.26,373.58a6.06,6.06,0,0,1,2.44-2.41c1,.88,7.11,2.59,7.11,2.59s0,.26,1.13,1.42c.88.89,1.91,2,3,2.94.58.17,6.66,4,5.84,4.36s-6.29.26-8.24.18c-.46,0-6.8-2.58-8.92-3.36s-4.05-1.74-3.91-2.13A25.11,25.11,0,0,1,383.26,373.58Z"/>
              </g>
              <path class="cls-65" d="M425.39,263.82s-3.2,28.82-4.88,43.4c-.55,4.76-.94,8-1,8.24-1,3.78-2.5,8.42-4.23,13.39-6.55,18.68-16.39,41.5-16.39,41.5s-7.65-1.25-12.09-4.38L398,314s-.6-41.76-.91-48.68Z"/>
              <path class="cls-66" d="M420.51,307.22c-.55,4.76-.94,8-1,8.24-1,3.78-2.5,8.42-4.23,13.39-.33-5.25-2.4-40-2.4-40Z"/>
              <path class="cls-62" d="M441.43,180.88c-.81,4.36-3.09,13.48-5.46,16.86a1.39,1.39,0,0,1-1.47.57c-2.58-.58-11.15-3.26-12.69-13.32-1.82-11.87,6.84-14.18,10.89-13.18S442.78,173.56,441.43,180.88Z"/>
              <path class="cls-67" d="M437.45,261.25l1.71,49.93-2.28,60.64s-7.72,1.33-13.32.43c0,0-5.1-46.81-5.38-53.46-.36-8.53-10.46-52.34-10.23-57.92"/>
              <path class="cls-62" d="M432.59,195.28a71.2,71.2,0,0,0-1.74,9s-7.37-.25-11.63-2.56A56.64,56.64,0,0,0,422.89,186"/>
              <path class="cls-68" d="M446.29,175.82a2.79,2.79,0,0,0-1.63-1.63,16.52,16.52,0,0,1-1.71-.45c-1.39-.69-1.45-2.75-2.63-3.77a3.7,3.7,0,0,0-1.39-.69,9.45,9.45,0,0,0-3.92-.35,5.69,5.69,0,0,1-1.79.08,6.2,6.2,0,0,1-1-.31,6,6,0,0,0-3.93-.23,4.25,4.25,0,0,0-1.4.8c-4.16,1.46-2.89,4.25-2.89,4.25-2.89.64-4.73,2.17-4.83,7.47s.75,12,1.45,12.94,6.7,2.6,9.58,1.21c.95-.46,3.79-8.89,4.11-9.81a1.39,1.39,0,0,1,.32-.6,1.36,1.36,0,0,1,1-.17,4.43,4.43,0,0,0,2.45-.68,6.28,6.28,0,0,0,2.79-.36,4.33,4.33,0,0,0,1.73-1.11,2.87,2.87,0,0,0,.56-.95,4.82,4.82,0,0,0,3.19-3.31A3.86,3.86,0,0,0,446.29,175.82Z"/>
              <path class="cls-69" d="M396.39,268c1.37.77,30.73,2.47,41.37-.5,0,0-.08-6.74,0-10.05,0-1.43,1.84-35.51,1.31-44.51,0,0-2.72-7.62-8.35-9.24a107,107,0,0,0-13.56-2.83c-2.94.53-8.72,6.29-10.72,11.6C400.34,228.61,395.25,267.32,396.39,268Z"/>
              <path class="cls-62" d="M477.43,218.11c-.13,0-.53.11-1.08.25.3-.39.22-.82-.05-.73s-2.33.68-2.83.93-2.17,1.34-2.17,1.34h0a3.07,3.07,0,0,0-.49.25c-.89.62-1.74,2.53-2.85,3.47a20.43,20.43,0,0,1-2.75,1.83l-18.32,5-4.13-8.54-12.91,2.85s7.4,13.8,11,16.49c1.32,1,21.67-9.81,26.42-12.35h0c.82-.44,4-1.09,4.83-2.29a7.11,7.11,0,0,0,1.07-2l1.5-1.82s1.69-1.14,1.82-1.65a.39.39,0,0,0-.21-.5l.57-.42c.67-.61.25-1,.25-1C477.8,218.83,478,218.05,477.43,218.11Z"/>
              <path class="cls-70" d="M425.26,212.61c-.34,3.8,5.25,17.39,5.25,17.39s7.88-1.47,13.47-6.6c0,0-4.83-12.43-7.15-14.78C434,205.75,425.79,206.66,425.26,212.61Z"/>
            </g>
            <g>
              <path class="cls-71" d="M398.69,159H376.26a2.44,2.44,0,0,0-2.44,2.44V177.2a2.44,2.44,0,0,0,2.44,2.44h14.87l3.28,3.6a.62.62,0,0,0,1.07-.42v-3.18h3.21a2.44,2.44,0,0,0,2.44-2.44V161.43A2.44,2.44,0,0,0,398.69,159Z"/>
              <g>
                <path class="cls-72" d="M393.93,169.31a1.55,1.55,0,1,0,1.55-1.55A1.55,1.55,0,0,0,393.93,169.31Z"/>
                <path class="cls-72" d="M385.92,169.31a1.56,1.56,0,1,0,1.55-1.55A1.56,1.56,0,0,0,385.92,169.31Z"/>
                <path class="cls-72" d="M377.92,169.31a1.55,1.55,0,1,0,1.55-1.55A1.55,1.55,0,0,0,377.92,169.31Z"/>
              </g>
            </g>
          </g>
          <g>
            <g>
              <path class="cls-62" d="M147.8,374l-6.16.77-2.59-14.28,8.19-.42S147.63,373.42,147.8,374Z"/>
              <path class="cls-62" d="M102.38,362.54s-3.86,10.65-3.91,11.25l-7-2.18,2.67-11Z"/>
              <path class="cls-73" d="M147.27,315.51c-1.42-12.12-4.26-45.48-5.46-56.77l-21.36-4.94c-10.35,22,.41,27.41,2.89,32.27.57,1.11,1.55,11.86,5.26,28.33,2.33,24.08,6.12,53.2,6.12,53.2s10.43.4,14-1.47Z"/>
              <path class="cls-74" d="M107.53,258.06s-5.2,9.05-4.46,17.09c.64,6.9,2,27.24,3,38.32-5.32,16.83-13.14,49.81-13.14,49.81a43,43,0,0,0,8.64,3.19c1.2.34,5.33.92,6.07.69,0,0,13.94-42.59,16.28-51.29,5.55-20.6,9.72-58.11,9.72-58.11Z"/>
              <path class="cls-75" d="M162.41,376a1.36,1.36,0,0,1,.67,2c-1,2.08-9.1,4.25-13,4.68h-9.5l14.29-5.22a26,26,0,0,1,4.51-1.6A11.38,11.38,0,0,1,162.41,376Z"/>
              <path class="cls-76" d="M141.53,374.18s4.1.2,6.24-.57c0,0,5.27,1.81,8.2,1.81s5.68,0,6.44.6c-2-.32-4,.27-6.37,1.66-8.89,5.25-15.47,5-15.47,5S139.7,376.88,141.53,374.18Z"/>
              <path class="cls-77" d="M108.55,382.71c.46-3.54-3.92-5.18-6.63-5.67-1.78-.94-3.24-4-3.24-4a13.88,13.88,0,0,1-7-2.12,8.45,8.45,0,0,0-2.08,2.88,15.76,15.76,0,0,0-1.25,4.43s3,1.95,4.89,3.06,5.87,1.43,5.87,1.43Z"/>
            </g>
            <g>
              <path class="cls-78" d="M136.75,177.18a8.83,8.83,0,0,1-.47,9.27,24.48,24.48,0,0,0-2.61,6.83c-1,4.35.33,12.77.33,12.77s-5.54.76-8-.38-.49-15.06-.49-15.06,1.68-7.77,2-8.53,5.16-6.58,5.16-6.58Z"/>
              <path class="cls-62" d="M128.16,202.12c-.06-.47.07-8.39.07-8.39l-.71-1.19-3.23-5.46s-5.18-3.2-5.71,0c-.37,2.33-.11,14.77-.11,14.77l-5.69,2c2,5.21,9.09,5.72,9.09,5.72,10.07.94,14.35-5.5,14.35-5.5S128.27,202.55,128.16,202.12Z"/>
              <path class="cls-79" d="M121.3,191.66s1.67,5.25,6.87,6.8v-1.91Z"/>
              <path class="cls-62" d="M173.66,211.53c-.09-.49-.23-.94-.47-1a1.78,1.78,0,0,0-.48-.09l1.06-1.32c.33-.4,1.71-1.87,1.79-2.48s-.61-.5-.79-.38a13.38,13.38,0,0,0-2.19,2.07c-.46.51-1.34,1.48-2,2.15a16.62,16.62,0,0,0,1-2,.55.55,0,0,0-.31-.65,11.37,11.37,0,0,0-2.91,3.48,12.94,12.94,0,0,0-.49,2.64,5,5,0,0,1-1.54,2.22L157.92,223l4.17,4.07L169.6,219a7.51,7.51,0,0,1,2-1.32,3.83,3.83,0,0,0,1.18-1.13,4.49,4.49,0,0,0,.44-.91c.09.28.33.37.5.15a8.08,8.08,0,0,0,.79-2.17c0-.38.11-1.67-.14-1.93A.92.92,0,0,0,173.66,211.53Z"/>
              <path class="cls-62" d="M136.63,175.74s.05,20.51-5.62,21.29c-2.58.35-8-2.56-10.75-6.74,0,0-4.14-5.88-3.53-12.28S134,166.88,136.63,175.74Z"/>
              <path class="cls-80" d="M136.78,185.64s1.21-4.07-.24-6.3c0,0-1-1.22-3.64-.37-1.92.61-5.7,2.07-9.33-.7,0,0,.41,4.69-3,6.88a14.8,14.8,0,0,0-1.19,4.7c-.08,2.06-.42,7.24-.94,12l-6.92,2.37s.26-2.31.46-10.37c.19-7.74-2.28-17,4.63-19.72,0,0,2.13-7.25,11.89-5.71S142.59,177.83,136.78,185.64Z"/>
              <path class="cls-62" d="M122.51,184.39s-1.15-3.26-3.29-1.62c-1.56,1.19-1.2,6.83,1.6,7.07"/>
              <path class="cls-81" d="M160.61,220.78s-5.52,4.19-10.12,7.4c-1.81-3.83-2.6-5.38-6.78-15.08-3.59-8.3-6.33-8.8-6.33-8.8l-3.2,20.2S143.31,240.21,148,241c2.68.47,11.87-8.18,17.14-13.86a21.16,21.16,0,0,0-3.74-6A4.49,4.49,0,0,0,160.61,220.78Z"/>
              <path class="cls-82" d="M106.27,242.54c.33,4.34-2.76,23.74-3.08,26.12-.15,1.09.34,1.4.34,1.4s23.17,6.83,39.13,0c0,0,.62-.23.45-1.69-.29-2.66-2.61-34-2.61-34a47.81,47.81,0,0,0,3.13-8.41c.65-3.23-3-8.84-3.46-11.33s-2.79-10.31-2.79-10.31-1.75-.5-7-1.69c0,0-3.44,9-14.61,0-1.12.21-5.82,1.1-7.4,1.45a3.34,3.34,0,0,1-.39.09,9,9,0,0,0-4.28,3.33,36.32,36.32,0,0,0-.1,17.82A112.09,112.09,0,0,1,106.27,242.54Z"/>
              <rect class="cls-83" x="110.07" y="225.72" width="25.55" height="36.4" rx="1.09" transform="translate(150.6 515.61) rotate(-159.1)"/>
              <rect class="cls-84" x="109.16" y="225.72" width="25.55" height="36.4" rx="1.54" transform="translate(203.13 504.25) rotate(-170.76)"/>
              <path class="cls-62" d="M136.25,244.89c.44,0,.91-.3.7-.56s-3-1.5-3.69-1.3-1.71.83-2.42,1a8.9,8.9,0,0,1-2.19,0l-9.37-2-3,5.41,13.27.79s1.34.56,2.25,1l.11,0a6.62,6.62,0,0,0,1.85.47c.81,0,1.16-.48,1.17-.82h0c.44-.1.62-.37.63-.63a.74.74,0,0,0-.08-.38.68.68,0,0,0,.58-.62.86.86,0,0,0-.09-.41.69.69,0,0,0,.62-.63,1,1,0,0,0-.19-.59,8.53,8.53,0,0,0-2.5-1h0A14.25,14.25,0,0,0,136.25,244.89Z"/>
              <path class="cls-85" d="M119.84,242l-11.93-2.79c1.57-6.07,3.6-15.28,4.89-21,1.57-7.07-.35-13.4-4.42-14.19a3.34,3.34,0,0,1-.39.09,8,8,0,0,0-4.38,3.1,25.7,25.7,0,0,0-2.66,8.07S95.19,245,99.26,246.93c3.52,1.68,18,3.64,18,3.64s1.42-1.81,2.56-6.39A3.37,3.37,0,0,0,119.84,242Z"/>
            </g>
          </g>
          <g>
            <rect class="cls-86" x="8.77" y="176.31" width="59.33" height="39.93" rx="5.16"/>
            <rect class="cls-87" x="14.04" y="182.98" width="26.59" height="26.59" rx="2.06"/>
            <g>
              <rect class="cls-21" x="15.88" y="191.59" width="2.96" height="15.58" rx="0.51"/>
              <rect class="cls-21" x="20.87" y="194.61" width="2.96" height="12.56" rx="0.51"/>
              <rect class="cls-21" x="25.86" y="192.45" width="2.96" height="14.72" rx="0.51"/>
              <rect class="cls-21" x="30.85" y="185.68" width="2.96" height="21.49" rx="0.51"/>
              <rect class="cls-21" x="35.83" y="189.93" width="2.96" height="17.24" rx="0.51"/>
            </g>
            <g>
              <line class="cls-88" x1="47.61" y1="185.82" x2="61.66" y2="185.82"/>
              <line class="cls-88" x1="47.61" y1="188.9" x2="59.94" y2="188.9"/>
              <line class="cls-88" x1="47.61" y1="191.98" x2="59.94" y2="191.98"/>
              <line class="cls-88" x1="47.61" y1="195.06" x2="61.66" y2="195.06"/>
              <line class="cls-88" x1="47.61" y1="198.14" x2="57.22" y2="198.14"/>
              <line class="cls-88" x1="47.61" y1="201.23" x2="61.66" y2="201.23"/>
              <line class="cls-88" x1="47.61" y1="204.31" x2="61.66" y2="204.31"/>
              <line class="cls-88" x1="47.61" y1="207.39" x2="57.46" y2="207.39"/>
            </g>
          </g>
          <g>
            <path class="cls-89" d="M376.81,294.84c0-.15-.07-.32-.11-.47a16.48,16.48,0,0,0-.52-1.86,16.15,16.15,0,0,0-1.93-3.85l1.88-1.87-4.49-4.5-.09.09-1.78,1.79a16.79,16.79,0,0,0-6.19-2.56V279h-6.36v2.65a16.81,16.81,0,0,0-6.18,2.56l-1.87-1.88-4.5,4.5,1.88,1.87a16.81,16.81,0,0,0-2.56,6.18h-2.65v6.36H344a16.49,16.49,0,0,0,2.55,6.18l-1.88,1.87,4.5,4.5,1.87-1.88a16.3,16.3,0,0,0,6.18,2.55v2.67h6.36v-2.67a16.28,16.28,0,0,0,6.19-2.55l1.78,1.8.09.08,2.7-2.7,1.79-1.8-1.79-1.78-.09-.09a.6.6,0,0,0,.09-.13,16.46,16.46,0,0,0,2.47-6.05h2.66v-6.36Zm-16.41,13.8A10.62,10.62,0,1,1,371,298,10.61,10.61,0,0,1,360.4,308.64Z"/>
            <path class="cls-90" d="M521,160.31l-.06-.26a7.27,7.27,0,0,0-.29-1,8.75,8.75,0,0,0-1.07-2.14l1.05-1.05-2.51-2.5-.05.05-1,1a9.11,9.11,0,0,0-3.44-1.43v-1.48h-3.54v1.48a9.16,9.16,0,0,0-3.45,1.43l-1-1.05-2.5,2.5,1,1.05a9.19,9.19,0,0,0-1.42,3.44h-1.48v3.54h1.48a9.26,9.26,0,0,0,1.42,3.44l-1,1,2.5,2.51,1-1.05a9.31,9.31,0,0,0,3.45,1.42v1.48h3.54v-1.48a9.26,9.26,0,0,0,3.44-1.42l1,1,.05.05,1.51-1.51,1-1-1-1-.05-.05.05-.07a9.15,9.15,0,0,0,1.37-3.37h1.48v-3.54ZM511.83,168a5.91,5.91,0,1,1,5.91-5.91A5.91,5.91,0,0,1,511.83,168Z"/>
            <path class="cls-91" d="M113.65,145.74c0-.1-.05-.21-.08-.32a10.5,10.5,0,0,0-.35-1.25,10.81,10.81,0,0,0-1.29-2.59l1.26-1.25-3-3-.06.06-1.2,1.21a11.23,11.23,0,0,0-4.15-1.73v-1.78h-4.28v1.78a11.23,11.23,0,0,0-4.15,1.73l-1.26-1.27-3,3,1.27,1.25a11.28,11.28,0,0,0-1.73,4.16H89.8V150h1.79a11,11,0,0,0,1.72,4.16L92,155.43l3,3,1.26-1.26a11.2,11.2,0,0,0,4.15,1.71v1.79h4.28V158.9a11.2,11.2,0,0,0,4.15-1.71l1.2,1.2.06.06,1.82-1.82,1.2-1.2-1.2-1.2-.06-.06.06-.09a11.32,11.32,0,0,0,1.66-4.07h1.79v-4.27Zm-11,9.27a7.14,7.14,0,1,1,7.14-7.13A7.14,7.14,0,0,1,102.62,155Z"/>
          </g>
          <g>
            <rect class="cls-92" x="165.97" y="249.56" width="48.36" height="45.14" rx="5.35"/>
            <rect class="cls-21" x="169.35" y="252.71" width="41.61" height="38.83" rx="3.51"/>
            <path class="cls-93" d="M198.94,291.55H172.85a3.48,3.48,0,0,1-3.25-2.24l11.41-17a3,3,0,0,1,5,0l3.63,5.41Z"/>
            <path class="cls-94" d="M211,272.53V288a3.52,3.52,0,0,1-3.51,3.51H180.34l9.29-13.84,10.18-15.14a2.68,2.68,0,0,1,4.46,0Z"/>
            <path class="cls-95" d="M187.66,260.69a4.45,4.45,0,1,1-4.44-4.45A4.44,4.44,0,0,1,187.66,260.69Z"/>
          </g>
          <g>
            <path class="cls-96" d="M210.24,74.51c0,5.77-4.11,10.45-9.18,10.45s-9.18-4.68-9.18-10.45,4.11-10.44,9.18-10.44S210.24,68.74,210.24,74.51Z"/>
            <path class="cls-97" d="M203.94,87.35h0a24.13,24.13,0,0,0-5.76,0h0a20.12,20.12,0,0,0-17,14.7H221A20.12,20.12,0,0,0,203.94,87.35Z"/>
            <path class="cls-98" d="M224.48,55.4a1.11,1.11,0,1,1-1.11-1.11A1.11,1.11,0,0,1,224.48,55.4Z"/>
            <path class="cls-99" d="M229.55,55.4a1.11,1.11,0,1,1-1.11-1.11A1.11,1.11,0,0,1,229.55,55.4Z"/>
            <path class="cls-100" d="M234.62,55.4a1.11,1.11,0,1,1-1.11-1.11A1.11,1.11,0,0,1,234.62,55.4Z"/>
            <path class="cls-101" d="M235.27,52H166.85a2.49,2.49,0,0,0-2.49,2.49V100a2.49,2.49,0,0,0,2.49,2.49h68.42a2.5,2.5,0,0,0,2.49-2.49V54.52A2.5,2.5,0,0,0,235.27,52Zm-68.42.79h68.42a1.7,1.7,0,0,1,1.7,1.7v3.2H165.15v-3.2A1.7,1.7,0,0,1,166.85,52.82Zm68.42,48.84H166.85a1.7,1.7,0,0,1-1.7-1.7V58.5H237V100A1.7,1.7,0,0,1,235.27,101.66Z"/>
          </g>
          <g>
            <g>
              <path class="cls-102" d="M58,239a9.19,9.19,0,1,1-9.24-9.15A9.19,9.19,0,0,1,58,239Z"/>
              <polyline class="cls-103" points="44.72 239.52 48.35 243.01 53.15 236.47"/>
            </g>
            <g>
              <path class="cls-104" d="M563.61,233.55a6.92,6.92,0,1,1-6.83-7A6.91,6.91,0,0,1,563.61,233.55Z"/>
              <polyline class="cls-105" points="553.65 233.75 556.34 236.43 560.03 231.57"/>
            </g>
            <path class="cls-106" d="M89.93,219.65a2.55,2.55,0,1,1-2.55-2.54A2.55,2.55,0,0,1,89.93,219.65Z"/>
            <path class="cls-104" d="M85,279.62a1.56,1.56,0,1,1-1.56-1.56A1.55,1.55,0,0,1,85,279.62Z"/>
            <path class="cls-107" d="M177.13,339.81a1.56,1.56,0,1,1-1.56-1.55A1.55,1.55,0,0,1,177.13,339.81Z"/>
            <path class="cls-108" d="M52,319a3.24,3.24,0,1,1-3.23-3.24A3.23,3.23,0,0,1,52,319Z"/>
            <path class="cls-108" d="M582.66,349a3.24,3.24,0,1,1-3.23-3.24A3.24,3.24,0,0,1,582.66,349Z"/>
            <path class="cls-108" d="M316.35,3.24A3.24,3.24,0,1,1,313.12,0,3.23,3.23,0,0,1,316.35,3.24Z"/>
            <path class="cls-108" d="M126.81,101.35a4.3,4.3,0,1,1-4.3-4.3A4.3,4.3,0,0,1,126.81,101.35Z"/>
            <path class="cls-108" d="M510.22,71.54a4.31,4.31,0,1,1-4.3-4.31A4.31,4.31,0,0,1,510.22,71.54Z"/>
            <path class="cls-104" d="M482.49,130.72a2.54,2.54,0,1,1-2.54-2.54A2.54,2.54,0,0,1,482.49,130.72Z"/>
            <path class="cls-102" d="M453.4,325.05a2.54,2.54,0,1,1-2.54-2.54A2.54,2.54,0,0,1,453.4,325.05Z"/>
            <path class="cls-104" d="M293.5,70.72h-2.05v-2a.81.81,0,1,0-1.62,0v2h-2.05a.82.82,0,0,0,0,1.63h2.05v2a.81.81,0,1,0,1.62,0v-2h2.05a.82.82,0,0,0,0-1.63Z"/>
            <g>
              <path class="cls-104" d="M457.51,177.24a.81.81,0,0,1-.81-.81v-5.72a.81.81,0,0,1,1.62,0v5.72A.81.81,0,0,1,457.51,177.24Z"/>
              <path class="cls-104" d="M460.37,174.38h-5.72a.81.81,0,0,1,0-1.62h5.72a.81.81,0,0,1,0,1.62Z"/>
            </g>
            <path class="cls-104" d="M186.08,229.8H184v-2.05a.81.81,0,0,0-1.62,0v2.05h-2a.81.81,0,1,0,0,1.62h2v2.05a.81.81,0,0,0,1.62,0v-2.05h2.05a.81.81,0,1,0,0-1.62Z"/>
            <path class="cls-102" d="M497,109.91h-2.05v-2a.81.81,0,0,0-1.62,0v2h-2.05a.82.82,0,0,0,0,1.63h2.05v2a.81.81,0,1,0,1.62,0v-2H497a.82.82,0,0,0,0-1.63Z"/>
            <path class="cls-106" d="M382.33,240.24h-2.05v-2a.81.81,0,1,0-1.62,0v2h-2.05a.81.81,0,0,0,0,1.62h2.05v2a.81.81,0,1,0,1.62,0v-2h2.05a.81.81,0,0,0,0-1.62Z"/>
          </g>
          <g>
            <g>
              <rect class="cls-109" x="511.83" y="294.7" width="54" height="41.91" rx="3.86"/>
              <rect class="cls-110" x="520.06" y="299.49" width="37.52" height="29.13" rx="2.68"/>
              <path class="cls-111" d="M556.76,332.81H520.89a.83.83,0,0,1-.83-.83h0a.83.83,0,0,1,.83-.82h35.87a.83.83,0,0,1,.83.82h0A.83.83,0,0,1,556.76,332.81Z"/>
              <path class="cls-112" d="M557.59,332a.83.83,0,0,1-.83.83H532.64v-1.65h24.12A.83.83,0,0,1,557.59,332Z"/>
              <circle class="cls-113" cx="532.64" cy="331.98" r="2.21"/>
              <path class="cls-114" d="M533.89,332a1.26,1.26,0,1,1-1.25-1.25A1.26,1.26,0,0,1,533.89,332Z"/>
            </g>
            <path class="cls-115" d="M535.47,308.49a.41.41,0,0,0-.33.4v8.69a2.68,2.68,0,0,0-2.23.14c-1.21.6-1.83,1.82-1.38,2.73a2.21,2.21,0,0,0,3,.56A2.36,2.36,0,0,0,536,318.6h0v-8.05l7.69-1.44v6.69a2.72,2.72,0,0,0-2.23.14c-1.21.6-1.83,1.83-1.38,2.73a2.21,2.21,0,0,0,3,.56,2.36,2.36,0,0,0,1.48-2.41h0v-9.56a.41.41,0,0,0-.48-.4Z"/>
          </g>
          <g>
            <rect class="cls-116" x="313.12" y="78.57" width="56.41" height="43.08" rx="4"/>
            <rect class="cls-117" x="316.27" y="80.98" width="50.09" height="38.26" rx="2.44"/>
            <g>
              <g>
                <path class="cls-118" d="M328,92s.19-1.33.65-1.58a19.94,19.94,0,0,1,4.67-1.15c1,0,1.49,1.73,1.49,1.73Z"/>
                <path class="cls-119" d="M353.94,92s-.19-1.33-.65-1.58a19.9,19.9,0,0,0-4.68-1.15c-.95,0-1.48,1.73-1.48,1.73Z"/>
              </g>
              <path class="cls-21" d="M356,93.39c-2.15-3.23-13-3.49-15.05-3.51s-12.89.28-15,3.51c-1.52,2.28-5.17,15.52-4.87,16.56s4.71,1.77,6.48,0a19.15,19.15,0,0,0,2.32-3.2,5.71,5.71,0,0,1,6.19-2.6,16.55,16.55,0,0,0,9.85,0,5.71,5.71,0,0,1,6.19,2.6,19.15,19.15,0,0,0,2.32,3.2c1.77,1.77,6.19,1,6.48,0S357.52,95.67,356,93.39Z"/>
              <g>
                <path class="cls-120" d="M338,101.35a2.11,2.11,0,1,1-2.11-2.11A2.11,2.11,0,0,1,338,101.35Z"/>
                <path class="cls-121" d="M348.18,101.35a2.11,2.11,0,1,1-2.11-2.11A2.12,2.12,0,0,1,348.18,101.35Z"/>
              </g>
              <path class="cls-122" d="M331.45,96.51h-.72V95.8a1.32,1.32,0,0,0-2.64,0v.71h-.71a1.32,1.32,0,1,0,0,2.64h.71v.72a1.32,1.32,0,0,0,2.64,0v-.72h.72a1.32,1.32,0,0,0,0-2.64Z"/>
              <g>
                <path class="cls-123" d="M353.23,95.79a1.31,1.31,0,1,1-1.31-1.31A1.31,1.31,0,0,1,353.23,95.79Z"/>
                <path class="cls-124" d="M353.23,99.87a1.31,1.31,0,1,1-1.31-1.31A1.3,1.3,0,0,1,353.23,99.87Z"/>
                <path class="cls-125" d="M354,99.14a1.31,1.31,0,1,1,1.31-1.31A1.31,1.31,0,0,1,354,99.14Z"/>
                <path class="cls-126" d="M349.88,99.14a1.31,1.31,0,1,1,1.32-1.31A1.31,1.31,0,0,1,349.88,99.14Z"/>
              </g>
            </g>
          </g>
          <line class="cls-127" y1="382.71" x2="569.48" y2="382.71"/>
        </g>
      </g>
    </g>
  </g>
</svg>
